<?xml version="1.0" encoding="iso-8859-1"?>
<!-- Uploaded to: SVG Repo, www.svgrepo.com, Generator: SVG Repo Mixer Tools -->
<svg height="800px" width="800px" version="1.1" id="Layer_1" xmlns="http://www.w3.org/2000/svg" xmlns:xlink="http://www.w3.org/1999/xlink" 
	 viewBox="0 0 512 512" xml:space="preserve">
<polygon style="fill:#51D1F5;" points="402.638,150.553 266.69,150.553 299.371,374.31 503.83,374.31 503.83,349.14 492.978,340.97 
	503.83,332.8 503.83,276.843 "/>
<path style="fill:#4F7034;" d="M68.1,74.298L8.17,178.099V374.31h23.82c5.442-41.663,41.143-73.945,84.265-73.945
	s78.822,32.283,84.265,73.945h98.85V74.298H68.1z"/>
<path style="fill:#16A4CC;" d="M31.99,374.31h168.53c-5.442-41.663-41.143-73.945-84.265-73.945
	C73.133,300.365,37.433,332.649,31.99,374.31z"/>
<g>
	<circle style="fill:#1E3D2E;" cx="395.743" cy="385.373" r="52.322"/>
	<circle style="fill:#1E3D2E;" cx="116.257" cy="385.373" r="52.322"/>
</g>
<polygon style="fill:#FFFFFF;" points="444.397,254.936 386.947,183.234 332.561,183.234 332.561,254.936 "/>
<path d="M510.206,271.734l-101.192-126.29c-1.55-1.935-3.896-3.061-6.376-3.061h-70.076c-4.513,0-8.17,3.658-8.17,8.17
	s3.657,8.17,8.17,8.17h66.154l96.944,120.989V332.8h-5.405c-4.513,0-8.17,3.658-8.17,8.17s3.657,8.17,8.17,8.17h5.405v16.999h-42.57
	c-8.057-23.955-30.709-41.264-57.345-41.264c-26.635,0-49.288,17.309-57.345,41.264H307.54V82.468h25.022
	c4.512,0,8.17-3.658,8.17-8.17c0-4.512-3.658-8.17-8.17-8.17H68.1c-2.919,0-5.616,1.558-7.075,4.085L1.095,174.014
	C0.378,175.255,0,176.665,0,178.099V374.31c0,4.512,3.657,8.17,8.17,8.17h14.98c-0.029,0.963-0.073,1.924-0.073,2.893
	c0,4.512,3.657,8.17,8.17,8.17s8.17-3.658,8.17-8.17c0-42.369,34.47-76.839,76.838-76.839c42.37,0,76.838,34.47,76.838,76.839
	c0,4.512,3.657,8.17,8.17,8.17c4.513,0,8.17-3.658,8.17-8.17c0-0.971-0.044-1.93-0.073-2.893h90.01h35.95
	c-0.046,0.96-0.073,1.924-0.073,2.893c0,33.358,27.139,60.498,60.498,60.498s60.498-27.139,60.498-60.498
	c0-0.971-0.027-1.934-0.073-2.893h47.66c4.513,0,8.17-3.658,8.17-8.17v-97.468C512,274.985,511.367,273.182,510.206,271.734z
	 M116.256,292.195c-44.786,0-82.283,31.765-91.171,73.945H16.34V180.288l56.477-97.82h218.383V366.14h-83.773
	C198.538,323.96,161.04,292.195,116.256,292.195z M395.744,429.532c-24.349,0-44.157-19.809-44.157-44.157
	c0-24.349,19.809-44.158,44.157-44.158c24.349,0,44.157,19.809,44.157,44.158C439.902,409.723,420.094,429.532,395.744,429.532z"/>
<path d="M160.845,122.903c-1.46-2.527-4.156-4.085-7.075-4.085s-5.616,1.558-7.075,4.085l-59.93,103.802
	c-1.46,2.527-1.46,5.643,0,8.17c1.46,2.527,4.156,4.085,7.075,4.085h49.917l-5.022,5.241c-3.122,3.257-3.014,8.428,0.244,11.552
	c1.584,1.518,3.62,2.271,5.653,2.271c2.149,0,4.294-0.842,5.899-2.516l18.274-19.064c0.064-0.066,0.118-0.137,0.179-0.206
	c0.099-0.11,0.198-0.219,0.291-0.334c0.08-0.099,0.154-0.203,0.228-0.305c0.081-0.11,0.16-0.218,0.235-0.331
	c0.073-0.112,0.139-0.227,0.207-0.341c0.066-0.112,0.132-0.222,0.193-0.337c0.063-0.119,0.117-0.239,0.173-0.359
	c0.054-0.118,0.111-0.235,0.159-0.356c0.05-0.122,0.092-0.245,0.135-0.367c0.044-0.125,0.089-0.249,0.127-0.377
	c0.038-0.126,0.068-0.255,0.099-0.383c0.032-0.127,0.064-0.252,0.09-0.381c0.028-0.148,0.048-0.297,0.069-0.446
	c0.015-0.111,0.036-0.221,0.047-0.333c0.052-0.529,0.052-1.063,0-1.593c-0.011-0.113-0.032-0.222-0.047-0.334
	c-0.021-0.149-0.039-0.297-0.069-0.446c-0.025-0.129-0.059-0.254-0.09-0.381c-0.032-0.127-0.061-0.256-0.099-0.382
	c-0.038-0.129-0.084-0.253-0.127-0.377c-0.044-0.122-0.085-0.246-0.135-0.367c-0.049-0.121-0.106-0.239-0.159-0.356
	c-0.057-0.121-0.111-0.241-0.173-0.359c-0.061-0.114-0.126-0.224-0.193-0.337c-0.069-0.114-0.134-0.229-0.207-0.341
	c-0.074-0.113-0.155-0.221-0.235-0.33c-0.074-0.102-0.148-0.206-0.228-0.305c-0.093-0.115-0.192-0.224-0.291-0.334
	c-0.061-0.069-0.114-0.139-0.179-0.205l-18.274-19.064c-3.122-3.258-8.293-3.367-11.552-0.245
	c-3.257,3.122-3.366,8.294-0.244,11.552l5.022,5.24h-35.765l45.778-79.291l45.778,79.291h-6.727c-4.513,0-8.17,3.658-8.17,8.17
	s3.657,8.17,8.17,8.17h20.878c2.919,0,5.616-1.558,7.075-4.085c1.46-2.527,1.46-5.643,0-8.17L160.845,122.903z"/>
<path d="M332.561,175.064c-4.513,0-8.17,3.658-8.17,8.17v71.701c0,4.512,3.657,8.17,8.17,8.17h111.837c4.513,0,8.17-3.658,8.17-8.17
	s-3.657-8.17-8.17-8.17H340.732v-63.53C340.732,178.722,337.075,175.064,332.561,175.064z"/>
<path d="M116.256,324.876c-33.358,0-60.498,27.139-60.498,60.499c0,33.358,27.139,60.498,60.498,60.498s60.498-27.139,60.498-60.498
	C176.753,352.015,149.614,324.876,116.256,324.876z M116.256,429.532c-24.349,0-44.157-19.809-44.157-44.157
	c0-24.349,19.809-44.158,44.157-44.158s44.157,19.809,44.157,44.158C160.413,409.723,140.604,429.532,116.256,429.532z"/>
</svg>